<?xml version="1.0" standalone="no"?>
<!DOCTYPE svg PUBLIC "-//W3C//DTD SVG 20010904//EN"
 "http://www.w3.org/TR/2001/REC-SVG-20010904/DTD/svg10.dtd">
<svg version="1.0" xmlns="http://www.w3.org/2000/svg"
 width="1024.000000pt" height="1024.000000pt" viewBox="0 0 1024.000000 1024.000000"
 preserveAspectRatio="xMidYMid meet">
<metadata>
Created by potrace 1.11, written by Peter Selinger 2001-2013
</metadata>
<g transform="translate(0.000000,1024.000000) scale(0.100000,-0.100000)"
fill="#000000" stroke="none">
<path d="M0 5120 l0 -5120 5120 0 5120 0 0 5120 0 5120 -5120 0 -5120 0 0
-5120z m2140 3998 c-1 -44 175 -1535 181 -1542 5 -5 11 -7 14 -5 4 4 195 1528
195 1554 0 3 164 5 365 5 201 0 365 -3 365 -7 -1 -18 203 -1548 206 -1552 2
-2 6 -2 9 1 3 2 45 353 93 779 l87 774 393 3 c215 1 392 -1 392 -5 -1 -5 -112
-602 -248 -1328 l-248 -1320 -399 0 -400 0 -132 733 c-72 404 -134 736 -137
739 -3 4 -8 4 -10 2 -2 -2 -61 -326 -130 -719 -69 -393 -129 -725 -131 -737
l-5 -23 -400 0 c-279 0 -400 3 -400 11 0 10 -475 2593 -484 2632 -4 16 21 17
410 17 325 0 414 -3 414 -12z m3725 -13 c475 -78 818 -351 965 -770 94 -268
111 -607 45 -898 -126 -557 -539 -902 -1145 -957 -276 -26 -559 21 -787 130
-364 173 -591 485 -664 910 -22 131 -27 394 -9 520 44 308 162 553 356 741
200 192 461 305 784 339 110 11 341 4 455 -15z m2185 1 c342 -65 591 -252 730
-549 101 -216 171 -599 155 -847 -13 -197 -66 -456 -125 -605 -108 -272 -312
-470 -577 -561 -185 -63 -216 -66 -775 -71 l-508 -5 0 1332 0 1332 503 -4
c427 -4 516 -7 597 -22z m-4770 -3001 l0 -345 -265 0 -265 0 0 -985 0 -985
-455 0 -455 0 0 985 0 985 -265 0 -265 0 0 345 0 345 985 0 985 0 0 -345z
m950 -985 l0 -1330 -460 0 -460 0 0 1330 0 1330 460 0 460 0 0 -1330z m1139
1293 c24 -91 341 -1344 341 -1348 0 -3 6 -5 14 -5 10 0 62 195 187 695 l174
695 577 0 578 0 0 -1330 0 -1330 -446 0 -446 0 6 103 c12 203 39 1407 32 1414
-4 4 -10 2 -14 -4 -4 -6 -90 -349 -191 -762 l-185 -751 -287 0 -288 0 -9 33
c-5 17 -83 359 -173 759 -119 528 -168 728 -178 728 -11 0 -12 -33 -7 -187 3
-104 11 -377 16 -608 5 -231 12 -489 16 -572 l6 -153 -411 0 -411 0 0 1330 0
1330 545 0 544 0 10 -37z m3571 -318 l0 -355 -392 -2 -393 -3 -3 -137 -3 -138
331 0 330 0 0 -330 0 -330 -330 0 -330 0 0 -140 0 -140 395 0 395 0 0 -365 0
-365 -830 0 -830 0 0 1330 0 1330 830 0 830 0 0 -355z m-5520 -2331 c0 -10
-243 -909 -246 -913 -2 -2 -39 12 -81 32 -43 19 -136 57 -208 83 -121 45 -137
48 -225 49 -87 0 -100 -2 -148 -30 -102 -56 -172 -155 -214 -302 -30 -104 -33
-361 -4 -463 28 -101 81 -193 147 -254 72 -67 133 -89 237 -88 97 1 174 37
253 119 l57 58 227 840 c125 462 230 848 233 858 4 16 40 17 583 17 319 0 579
-2 579 -4 0 -2 162 -597 360 -1322 198 -725 360 -1322 360 -1326 0 -4 -218 -8
-485 -8 l-485 0 -5 23 c-14 60 -75 337 -75 342 0 3 -121 5 -268 5 l-269 0 -32
-147 c-18 -82 -37 -165 -42 -185 l-10 -38 -432 0 c-596 0 -896 21 -1063 75
-367 119 -651 406 -778 786 -96 289 -94 685 6 967 169 479 547 776 1048 821
100 10 980 14 980 5z m2890 -949 l0 -955 390 0 390 0 0 -375 0 -375 -860 0
-860 0 0 1330 0 1330 470 0 470 0 0 -955z m2620 943 c0 -13 -231 -881 -236
-887 -2 -2 -32 20 -68 48 -88 71 -158 95 -266 95 -70 1 -94 -4 -135 -24 -105
-51 -182 -159 -227 -317 -29 -102 -31 -340 -5 -447 41 -165 136 -292 252 -335
49 -19 75 -22 140 -19 94 5 144 26 243 100 35 27 65 48 67 46 4 -6 235 -886
235 -898 0 -10 -91 -11 -427 -7 -560 7 -566 8 -807 144 -266 151 -385 263
-504 475 -173 310 -221 766 -119 1128 147 517 542 851 1067 899 144 14 790 13
790 -1z"/>
<path d="M5514 8400 c-173 -23 -290 -152 -346 -378 -30 -125 -30 -341 1 -467
43 -178 123 -295 239 -352 53 -26 66 -28 177 -28 111 0 124 2 177 28 147 72
233 230 259 477 10 86 10 135 0 222 -32 300 -156 467 -368 498 -37 5 -70 9
-73 9 -3 -1 -32 -5 -66 -9z"/>
<path d="M7539 7924 c0 -269 -2 -549 -5 -621 l-5 -133 100 0 c199 0 349 55
461 169 115 116 161 246 161 448 -1 203 -48 332 -165 448 -113 113 -228 157
-438 171 l-108 6 -1 -488z"/>
<path d="M3995 2978 c-2 -7 -33 -188 -69 -403 -37 -214 -69 -402 -72 -417 l-6
-28 157 0 157 0 -6 28 c-3 15 -33 196 -66 402 -33 206 -63 387 -66 403 -6 28
-22 36 -29 15z"/>
</g>
</svg>
