<?xml version="1.0" encoding="UTF-8"?>
<svg width="1024px" height="1024px" viewBox="0 0 1024 1024" version="1.1" xmlns="http://www.w3.org/2000/svg" xmlns:xlink="http://www.w3.org/1999/xlink">
    <!-- Generator: Sketch 55.2 (78181) - https://sketchapp.com -->
    <title>2a copy 8</title>
    <desc>Created with Sketch.</desc>
    <defs>
        <linearGradient x1="50%" y1="-15.0202115%" x2="50%" y2="100%" id="linearGradient-1">
            <stop stop-color="#2196F3" offset="0%"></stop>
            <stop stop-color="#000000" offset="100%"></stop>
        </linearGradient>
        <filter x="-4.6%" y="-4.4%" width="109.2%" height="108.7%" filterUnits="objectBoundingBox" id="filter-2">
            <feOffset dx="13" dy="15" in="SourceAlpha" result="shadowOffsetOuter1"></feOffset>
            <feGaussianBlur stdDeviation="1.5" in="shadowOffsetOuter1" result="shadowBlurOuter1"></feGaussianBlur>
            <feColorMatrix values="0 0 0 0 0   0 0 0 0 0   0 0 0 0 0  0 0 0 0.5 0" type="matrix" in="shadowBlurOuter1" result="shadowMatrixOuter1"></feColorMatrix>
            <feMerge>
                <feMergeNode in="shadowMatrixOuter1"></feMergeNode>
                <feMergeNode in="SourceGraphic"></feMergeNode>
            </feMerge>
        </filter>
    </defs>
    <g id="Page-1" stroke="none" stroke-width="1" fill="none" fill-rule="evenodd">
        <g id="2a-copy-8">
            <rect id="Rectangle" fill="url(#linearGradient-1)" x="0" y="0" width="1024" height="1024"></rect>
            <g id="Group" filter="url(#filter-2)" transform="translate(131.000000, 111.000000)" fill-rule="nonzero">
                <path d="M129.353808,266 L49.1169533,266 L0,0 L82.8614251,0 L100.858477,155.542373 L102.73317,155.542373 L121.855037,0 L194.968059,0 L215.589681,155.542373 L216.714496,155.542373 L234.336609,0 L313.448649,0 L263.581818,266 L183.344963,266 L156.724324,117.971751 L155.599509,117.971751 L129.353808,266 Z M294.201802,132.28877 C294.201802,112.137154 297.280307,93.8824347 303.437409,77.5240642 C309.594511,61.1656936 318.454598,47.2375798 330.017936,35.7393048 C341.581274,24.2410299 355.622259,15.410013 372.141314,9.2459893 C388.660368,3.08196561 407.131397,0 427.554955,0 C447.978513,0 466.449542,3.08196561 482.968596,9.2459893 C499.487651,15.410013 513.528636,24.2410299 525.091974,35.7393048 C536.655312,47.2375798 545.515399,61.1656936 551.672501,77.5240642 C557.829603,93.8824347 560.908108,112.137154 560.908108,132.28877 C560.908108,152.440386 557.829603,170.754374 551.672501,187.231283 C545.515399,203.708193 536.655312,217.754844 525.091974,229.371658 C513.528636,240.988472 499.487651,249.997294 482.968596,256.398396 C466.449542,262.799497 447.978513,266 427.554955,266 C407.131397,266 388.660368,262.799497 372.141314,256.398396 C355.622259,249.997294 341.581274,240.988472 330.017936,229.371658 C318.454598,217.754844 309.594511,203.708193 303.437409,187.231283 C297.280307,170.754374 294.201802,152.440386 294.201802,132.28877 Z M383.562162,133.983077 C383.562162,151.833779 387.131717,166.644466 394.270934,178.415581 C401.410151,190.186696 412.504714,196.072165 427.554955,196.072165 C442.605196,196.072165 453.699759,190.186696 460.838976,178.415581 C467.978193,166.644466 471.547748,151.833779 471.547748,133.983077 C471.547748,116.132375 467.978193,101.45104 460.838976,89.9386306 C453.699759,78.4262214 442.605196,72.6701031 427.554955,72.6701031 C412.504714,72.6701031 401.410151,78.4262214 394.270934,89.9386306 C387.131717,101.45104 383.562162,116.132375 383.562162,133.983077 Z M563.657658,266 L563.657658,0 L646.464966,0 C667.530089,0 685.386749,3.31870504 700.035484,9.95621469 C714.684219,16.5937243 726.548305,25.7984345 735.628099,37.5706215 C744.707893,49.3428084 751.305778,63.4316506 755.421952,79.8375706 C759.538125,96.2434907 763,114.214592 763,133.751412 C763,153.037761 759.538125,170.758394 755.421952,186.913842 C751.305778,203.06929 744.707893,216.970281 735.628099,228.617232 C726.548305,240.264183 714.684219,249.406276 700.035484,256.043785 C685.386749,262.681295 667.530089,266 646.464966,266 L563.657658,266 Z M694.261261,135.123586 C694.261261,115.308928 688.693693,99.946528 677.55839,89.0359253 C666.423087,78.1253226 651.056599,72.6701031 631.458466,72.6701031 L622.772973,72.6701031 L622.772973,196.072165 L631.458466,196.072165 C651.056599,196.072165 666.423087,190.616945 677.55839,179.706343 C688.693693,168.79574 694.261261,153.93497 694.261261,135.123586 Z" id="WOD" fill="#AAAAAA"></path>
                <path d="M129.353808,266 L49.1169533,266 L0,0 L82.8614251,0 L100.858477,155.542373 L102.73317,155.542373 L121.855037,0 L194.968059,0 L215.589681,155.542373 L216.714496,155.542373 L234.336609,0 L313.448649,0 L263.581818,266 L183.344963,266 L156.724324,117.971751 L155.599509,117.971751 L129.353808,266 Z M294.201802,132.28877 C294.201802,112.137154 297.280307,93.8824347 303.437409,77.5240642 C309.594511,61.1656936 318.454598,47.2375798 330.017936,35.7393048 C341.581274,24.2410299 355.622259,15.410013 372.141314,9.2459893 C388.660368,3.08196561 407.131397,0 427.554955,0 C447.978513,0 466.449542,3.08196561 482.968596,9.2459893 C499.487651,15.410013 513.528636,24.2410299 525.091974,35.7393048 C536.655312,47.2375798 545.515399,61.1656936 551.672501,77.5240642 C557.829603,93.8824347 560.908108,112.137154 560.908108,132.28877 C560.908108,152.440386 557.829603,170.754374 551.672501,187.231283 C545.515399,203.708193 536.655312,217.754844 525.091974,229.371658 C513.528636,240.988472 499.487651,249.997294 482.968596,256.398396 C466.449542,262.799497 447.978513,266 427.554955,266 C407.131397,266 388.660368,262.799497 372.141314,256.398396 C355.622259,249.997294 341.581274,240.988472 330.017936,229.371658 C318.454598,217.754844 309.594511,203.708193 303.437409,187.231283 C297.280307,170.754374 294.201802,152.440386 294.201802,132.28877 Z M383.562162,133.983077 C383.562162,151.833779 387.131717,166.644466 394.270934,178.415581 C401.410151,190.186696 412.504714,196.072165 427.554955,196.072165 C442.605196,196.072165 453.699759,190.186696 460.838976,178.415581 C467.978193,166.644466 471.547748,151.833779 471.547748,133.983077 C471.547748,116.132375 467.978193,101.45104 460.838976,89.9386306 C453.699759,78.4262214 442.605196,72.6701031 427.554955,72.6701031 C412.504714,72.6701031 401.410151,78.4262214 394.270934,89.9386306 C387.131717,101.45104 383.562162,116.132375 383.562162,133.983077 Z M563.657658,266 L563.657658,0 L646.464966,0 C667.530089,0 685.386749,3.31870504 700.035484,9.95621469 C714.684219,16.5937243 726.548305,25.7984345 735.628099,37.5706215 C744.707893,49.3428084 751.305778,63.4316506 755.421952,79.8375706 C759.538125,96.2434907 763,114.214592 763,133.751412 C763,153.037761 759.538125,170.758394 755.421952,186.913842 C751.305778,203.06929 744.707893,216.970281 735.628099,228.617232 C726.548305,240.264183 714.684219,249.406276 700.035484,256.043785 C685.386749,262.681295 667.530089,266 646.464966,266 L563.657658,266 Z M694.261261,135.123586 C694.261261,115.308928 688.693693,99.946528 677.55839,89.0359253 C666.423087,78.1253226 651.056599,72.6701031 631.458466,72.6701031 L622.772973,72.6701031 L622.772973,196.072165 L631.458466,196.072165 C651.056599,196.072165 666.423087,190.616945 677.55839,179.706343 C688.693693,168.79574 694.261261,153.93497 694.261261,135.123586 Z" id="WOD-Copy" fill="#FFFFFF"></path>
                <path d="M143.92168,534 L53.068466,534 L53.068466,337.129944 L0,337.129944 L0,268 L196.990146,268 L196.990146,337.129944 L143.92168,337.129944 L143.92168,534 Z M199.774653,268 L292.720708,268 L292.720708,534 L199.774653,534 L199.774653,268 Z M508.053003,382.214689 L506.355935,382.214689 L469.020436,534 L410.471584,534 L376.105954,382.214689 L374.408886,382.214689 L378.22729,534 L295.495217,534 L295.495217,268 L405.38038,268 L440.594544,407.011299 L442.291612,407.011299 L477.08151,268 L593.754945,268 L593.754945,534 L503.810333,534 L508.053003,382.214689 Z M596.529454,268 L763,268 L763,304.588099 L763,339.759887 L684.66092,339.759887 L684.66092,366.435028 L750.65308,366.435028 L750.65308,432.935028 L684.66092,432.935028 L684.66092,461.112994 L763,461.112994 C763,476.204789 763,488.242585 763,497.226384 C763,506.210182 763,518.468054 763,534 L596.529454,534 L596.529454,268 Z" id="TIME" fill="#FFFFFF"></path>
                <path d="M0,668.511443 C0,648.433852 3.16704739,630.246188 9.50123717,613.947908 C15.835427,597.649627 24.6167856,583.713626 35.8455766,572.139485 C47.0743676,560.565343 60.3903623,551.648664 75.7939602,545.38918 C91.1975581,539.129695 108.11247,536 126.539204,536 C134.21701,536 162.609047,536 211.715315,536 L186.447633,629.627434 C183.952346,626.950421 173.340149,622.373479 154.611041,615.896606 C147.221218,612.707828 140.743102,611.113439 135.176693,611.113439 C129.13042,611.113439 123.732044,612.530659 118.981402,615.365143 C114.23076,618.199626 110.127994,622.156033 106.672981,627.234483 C103.217968,632.312933 100.626748,638.395171 98.8992415,645.48138 C97.1717352,652.567589 96.307995,660.2442 96.307995,668.511443 C96.307995,676.778687 97.1717352,684.337197 98.8992415,691.187198 C100.626748,698.0372 103.217968,704.001337 106.672981,709.079786 C110.127994,714.158236 114.302738,718.114643 119.197339,720.949127 C124.09194,723.78361 129.562295,725.200831 135.608567,725.200831 C142.518592,725.200831 148.492795,723.606458 153.531355,720.417664 C158.569915,717.22887 165.504947,709.800992 168.672042,706.021681 L152.697497,797.888801 C152.286527,801.281009 143.567096,802.325704 126.539204,801.022887 C100.997367,799.068661 91.1975581,797.834141 75.7939602,791.456553 C60.3903623,785.078965 47.0743676,776.044184 35.8455766,764.351939 C24.6167856,752.659695 15.835427,738.723693 9.50123717,722.543516 C3.16704739,706.363339 0,688.352828 0,668.511443 Z M570.531532,667.621762 C570.531532,647.470146 573.685934,630.593665 579.994835,614.235294 C586.303735,597.876924 595.050034,583.889541 606.233994,572.272727 C617.417953,560.655913 630.680783,551.706359 646.022882,545.423797 C661.364981,539.141234 678.212359,536 696.565524,536 C704.212676,536 726.357501,536 763,536 L738.530145,627.570856 C736.044821,624.883973 731.376534,621.090747 724.525284,616.191176 C717.164964,612.990642 710.712712,611.390374 705.168527,611.390374 C699.146395,611.390374 693.769572,612.81282 689.037897,615.657754 C684.306221,618.502688 680.219836,622.473682 676.778617,627.570856 C673.337399,632.668029 670.756524,638.772692 669.035915,645.885027 C667.315306,652.997362 666.455014,660.702276 666.455014,669 C666.455014,677.297724 667.315306,684.884101 669.035915,691.759358 C670.756524,698.634615 673.337399,704.620741 676.778617,709.717914 C680.219836,714.815088 684.377912,718.786082 689.252972,721.631016 C694.128031,724.47595 699.576545,725.898396 705.598677,725.898396 C712.481114,725.898396 718.431465,724.298144 723.449908,721.097594 C728.468352,717.897043 735.375695,713.51116 738.530145,709.717914 L763,802 C744.719855,802 722.57503,802 696.565524,802 C657.551266,802 649.265561,793.4717 644.648107,791.020157 C640.030653,788.568615 617.417953,776.929203 606.233994,765.19385 C595.050034,753.458497 586.303735,739.471115 579.994835,723.231283 C573.685934,706.991452 570.531532,687.5363 570.531532,667.621762 Z M296.423292,765.180791 L243.662896,765.180791 L235.446113,802 L141.601802,802 L213.823,536 L330.155349,536 L402.809009,802 L304.640075,802 L296.423292,765.180791 Z M254.333333,700.010363 L284.578378,700.010363 L270.716066,614.559585 L269.035786,614.559585 L254.333333,700.010363 Z M405.558559,536 L500.160891,536 L500.160891,726.858757 L578.78018,726.858757 L578.78018,802 L405.558559,802 L405.558559,536 Z" id="CALC" fill="#FFFFFF"></path>
            </g>
        </g>
    </g>
</svg>